<svg width="375" height="230" viewBox="0 0 375 230" fill="none" xmlns="http://www.w3.org/2000/svg">
<g filter="url(#filter0_d_11_1445)">
<mask id="mask0_11_1445" style="mask-type:alpha" maskUnits="userSpaceOnUse" x="21" y="24" width="333" height="180">
<rect x="21" y="24" width="333" height="180" rx="7.76676" fill="#222222"/>
</mask>
<g mask="url(#mask0_11_1445)">
<g filter="url(#filter1_d_11_1445)">
<rect x="21" y="24" width="333" height="180" rx="7.76676" fill="#242424"/>
</g>
<path d="M142.837 124C163.307 120.976 184.945 123.974 201.133 127.599C218.453 131.477 235.853 135.53 253.571 136.573C286.275 138.496 318.965 132.582 348.922 119.321L355.351 116.475L363.603 210.647H84L86.0746 194.88C86.3095 193.095 86.6173 191.326 87.0833 189.587C90.2544 177.753 105.398 129.531 142.837 124Z" fill="url(#paint0_linear_11_1445)" fill-opacity="0.05"/>
</g>
<g clip-path="url(#clip0_11_1445)">
<path d="M51.6478 68.1506V66.5441C51.6478 65.9283 51.2748 65.5267 50.6354 65.5267C50.3158 65.5267 49.9694 65.6338 49.7297 65.9818C49.5432 65.6873 49.2768 65.5267 48.8772 65.5267C48.6108 65.5267 48.3444 65.607 48.1312 65.9015V65.5802H47.5718V68.1506H48.1312V66.7315C48.1312 66.2764 48.371 66.0622 48.744 66.0622C49.1169 66.0622 49.3034 66.3031 49.3034 66.7315V68.1506H49.8629V66.7315C49.8629 66.2764 50.1293 66.0622 50.4756 66.0622C50.8486 66.0622 51.0351 66.3031 51.0351 66.7315V68.1506H51.6478ZM59.933 65.5802H59.0272V64.8038H58.4678V65.5802H57.9616V66.0889H58.4678V67.267C58.4678 67.856 58.7075 68.2041 59.3469 68.2041C59.5867 68.2041 59.8531 68.1238 60.0396 68.0167L59.8797 67.5348C59.7199 67.6419 59.5334 67.6686 59.4002 67.6686C59.1338 67.6686 59.0272 67.508 59.0272 67.2402V66.0889H59.933V65.5802ZM64.675 65.5267C64.3553 65.5267 64.1422 65.6873 64.009 65.9015V65.5802H63.4496V68.1506H64.009V66.7047C64.009 66.2764 64.1955 66.0354 64.5418 66.0354C64.6484 66.0354 64.7816 66.0622 64.8882 66.0889L65.048 65.5534C64.9414 65.5267 64.7816 65.5267 64.675 65.5267ZM57.5087 65.7944C57.2423 65.607 56.8693 65.5267 56.4697 65.5267C55.8304 65.5267 55.4041 65.848 55.4041 66.3567C55.4041 66.7851 55.7238 67.026 56.2832 67.1064L56.5497 67.1331C56.8427 67.1867 57.0025 67.267 57.0025 67.4009C57.0025 67.5883 56.7894 67.7222 56.4164 67.7222C56.0435 67.7222 55.7504 67.5883 55.5639 67.4544L55.2975 67.8828C55.5906 68.097 55.9902 68.2041 56.3898 68.2041C57.1357 68.2041 57.562 67.856 57.562 67.3741C57.562 66.9189 57.2157 66.678 56.6829 66.5976L56.4164 66.5709C56.1767 66.5441 55.9902 66.4905 55.9902 66.3299C55.9902 66.1425 56.1767 66.0354 56.4697 66.0354C56.7894 66.0354 57.1091 66.1693 57.2689 66.2496L57.5087 65.7944ZM72.3742 65.5267C72.0545 65.5267 71.8413 65.6873 71.7081 65.9015V65.5802H71.1487V68.1506H71.7081V66.7047C71.7081 66.2764 71.8946 66.0354 72.241 66.0354C72.3475 66.0354 72.4807 66.0622 72.5873 66.0889L72.7471 65.5534C72.6406 65.5267 72.4807 65.5267 72.3742 65.5267ZM65.2345 66.8654C65.2345 67.6419 65.7673 68.2041 66.5931 68.2041C66.9661 68.2041 67.2325 68.1238 67.4989 67.9096L67.2325 67.4544C67.0194 67.6151 66.8063 67.6954 66.5665 67.6954C66.1136 67.6954 65.7939 67.3741 65.7939 66.8654C65.7939 66.3835 66.1136 66.0622 66.5665 66.0354C66.8063 66.0354 67.0194 66.1157 67.2325 66.2764L67.4989 65.8212C67.2325 65.607 66.9661 65.5267 66.5931 65.5267C65.7673 65.5267 65.2345 66.0889 65.2345 66.8654ZM70.4028 66.8654V65.5802H69.8433V65.9015C69.6568 65.6605 69.3904 65.5267 69.0441 65.5267C68.3248 65.5267 67.7653 66.0889 67.7653 66.8654C67.7653 67.6419 68.3248 68.2041 69.0441 68.2041C69.417 68.2041 69.6835 68.0702 69.8433 67.8293V68.1506H70.4028V66.8654ZM68.3514 66.8654C68.3514 66.4102 68.6445 66.0354 69.124 66.0354C69.5769 66.0354 69.8966 66.3835 69.8966 66.8654C69.8966 67.3206 69.5769 67.6954 69.124 67.6954C68.6445 67.6686 68.3514 67.3206 68.3514 66.8654ZM61.6646 65.5267C60.9187 65.5267 60.3859 66.0622 60.3859 66.8654C60.3859 67.6686 60.9187 68.2041 61.6913 68.2041C62.0643 68.2041 62.4372 68.097 62.7303 67.856L62.4639 67.4544C62.2507 67.6151 61.9843 67.7222 61.7179 67.7222C61.3716 67.7222 61.0253 67.5615 60.9453 67.1064H62.8368V66.8922C62.8635 66.0622 62.3839 65.5267 61.6646 65.5267ZM61.6646 66.0086C62.011 66.0086 62.2507 66.2228 62.304 66.6244H60.972C61.0253 66.2764 61.265 66.0086 61.6646 66.0086ZM75.5444 66.8654V64.5628H74.9849V65.9015C74.7984 65.6605 74.532 65.5267 74.1857 65.5267C73.4664 65.5267 72.907 66.0889 72.907 66.8654C72.907 67.6419 73.4664 68.2041 74.1857 68.2041C74.5587 68.2041 74.8251 68.0702 74.9849 67.8293V68.1506H75.5444V66.8654ZM73.4931 66.8654C73.4931 66.4102 73.7861 66.0354 74.2656 66.0354C74.7185 66.0354 75.0382 66.3835 75.0382 66.8654C75.0382 67.3206 74.7185 67.6954 74.2656 67.6954C73.7861 67.6686 73.4931 67.3206 73.4931 66.8654ZM54.7914 66.8654V65.5802H54.2319V65.9015C54.0454 65.6605 53.779 65.5267 53.4327 65.5267C52.7134 65.5267 52.154 66.0889 52.154 66.8654C52.154 67.6419 52.7134 68.2041 53.4327 68.2041C53.8057 68.2041 54.0721 68.0702 54.2319 67.8293V68.1506H54.7914V66.8654ZM52.7134 66.8654C52.7134 66.4102 53.0065 66.0354 53.486 66.0354C53.9389 66.0354 54.2586 66.3835 54.2586 66.8654C54.2586 67.3206 53.9389 67.6954 53.486 67.6954C53.0065 67.6686 52.7134 67.3206 52.7134 66.8654Z" fill="white"/>
<path d="M65.714 46.0617H57.3222V61.2161H65.714V46.0617Z" fill="#FF5F00"/>
<path d="M57.8551 53.6388C57.8551 50.5597 59.2936 47.8287 61.5048 46.0616C59.8797 44.7764 57.8284 44 55.5906 44C50.2891 44 46 48.3107 46 53.6388C46 58.9669 50.2891 63.2776 55.5906 63.2776C57.8284 63.2776 59.8797 62.5011 61.5048 61.216C59.2936 59.4756 57.8551 56.7178 57.8551 53.6388Z" fill="#EB001B"/>
<path d="M77.0363 53.6388C77.0363 58.9669 72.7472 63.2776 67.4457 63.2776C65.2079 63.2776 63.1566 62.5011 61.5315 61.2159C63.7693 59.4488 65.1813 56.7178 65.1813 53.6388C65.1813 50.5597 63.7427 47.8287 61.5315 46.0616C63.1566 44.7764 65.2079 44 67.4457 44C72.7472 44 77.0363 48.3374 77.0363 53.6388Z" fill="#F79E1B"/>
</g>
<path d="M49.2 99.6922L47.92 98.9522L49.42 96.5922L46.64 96.7122V95.2522L49.44 95.3922L47.94 93.0122L49.2 92.2722L50.52 94.8922L51.82 92.2722L53.1 93.0322L51.58 95.3922L54.38 95.2522V96.7122L51.58 96.5922L53.1 98.9522L51.82 99.6722L50.52 97.0522L49.2 99.6922ZM63.4773 99.6922L62.1973 98.9522L63.6973 96.5922L60.9173 96.7122V95.2522L63.7173 95.3922L62.2173 93.0122L63.4773 92.2722L64.7973 94.8922L66.0973 92.2722L67.3773 93.0322L65.8573 95.3922L68.6573 95.2522V96.7122L65.8573 96.5922L67.3773 98.9522L66.0973 99.6722L64.7973 97.0522L63.4773 99.6922ZM77.7547 99.6922L76.4747 98.9522L77.9747 96.5922L75.1947 96.7122V95.2522L77.9947 95.3922L76.4947 93.0122L77.7547 92.2722L79.0747 94.8922L80.3747 92.2722L81.6547 93.0322L80.1347 95.3922L82.9347 95.2522V96.7122L80.1347 96.5922L81.6547 98.9522L80.3747 99.6722L79.0747 97.0522L77.7547 99.6922ZM92.032 99.6922L90.752 98.9522L92.252 96.5922L89.472 96.7122V95.2522L92.272 95.3922L90.772 93.0122L92.032 92.2722L93.352 94.8922L94.652 92.2722L95.932 93.0322L94.412 95.3922L97.212 95.2522V96.7122L94.412 96.5922L95.932 98.9522L94.652 99.6722L93.352 97.0522L92.032 99.6922ZM111.563 99.6922L110.283 98.9522L111.783 96.5922L109.003 96.7122V95.2522L111.803 95.3922L110.303 93.0122L111.563 92.2722L112.883 94.8922L114.183 92.2722L115.463 93.0322L113.943 95.3922L116.743 95.2522V96.7122L113.943 96.5922L115.463 98.9522L114.183 99.6722L112.883 97.0522L111.563 99.6922ZM125.841 99.6922L124.561 98.9522L126.061 96.5922L123.281 96.7122V95.2522L126.081 95.3922L124.581 93.0122L125.841 92.2722L127.161 94.8922L128.461 92.2722L129.741 93.0322L128.221 95.3922L131.021 95.2522V96.7122L128.221 96.5922L129.741 98.9522L128.461 99.6722L127.161 97.0522L125.841 99.6922ZM140.118 99.6922L138.838 98.9522L140.338 96.5922L137.558 96.7122V95.2522L140.358 95.3922L138.858 93.0122L140.118 92.2722L141.438 94.8922L142.738 92.2722L144.018 93.0322L142.498 95.3922L145.298 95.2522V96.7122L142.498 96.5922L144.018 98.9522L142.738 99.6722L141.438 97.0522L140.118 99.6922ZM154.395 99.6922L153.115 98.9522L154.615 96.5922L151.835 96.7122V95.2522L154.635 95.3922L153.135 93.0122L154.395 92.2722L155.715 94.8922L157.015 92.2722L158.295 93.0322L156.775 95.3922L159.575 95.2522V96.7122L156.775 96.5922L158.295 98.9522L157.015 99.6722L155.715 97.0522L154.395 99.6922ZM173.927 99.6922L172.647 98.9522L174.147 96.5922L171.367 96.7122V95.2522L174.167 95.3922L172.667 93.0122L173.927 92.2722L175.247 94.8922L176.547 92.2722L177.827 93.0322L176.307 95.3922L179.107 95.2522V96.7122L176.307 96.5922L177.827 98.9522L176.547 99.6722L175.247 97.0522L173.927 99.6922ZM188.204 99.6922L186.924 98.9522L188.424 96.5922L185.644 96.7122V95.2522L188.444 95.3922L186.944 93.0122L188.204 92.2722L189.524 94.8922L190.824 92.2722L192.104 93.0322L190.584 95.3922L193.384 95.2522V96.7122L190.584 96.5922L192.104 98.9522L190.824 99.6722L189.524 97.0522L188.204 99.6922ZM202.481 99.6922L201.201 98.9522L202.701 96.5922L199.921 96.7122V95.2522L202.721 95.3922L201.221 93.0122L202.481 92.2722L203.801 94.8922L205.101 92.2722L206.381 93.0322L204.861 95.3922L207.661 95.2522V96.7122L204.861 96.5922L206.381 98.9522L205.101 99.6722L203.801 97.0522L202.481 99.6922ZM216.759 99.6922L215.479 98.9522L216.979 96.5922L214.199 96.7122V95.2522L216.999 95.3922L215.499 93.0122L216.759 92.2722L218.079 94.8922L219.379 92.2722L220.659 93.0322L219.139 95.3922L221.939 95.2522V96.7122L219.139 96.5922L220.659 98.9522L219.379 99.6722L218.079 97.0522L216.759 99.6922ZM238.695 106.792C237.762 106.792 236.875 106.652 236.035 106.372C235.195 106.079 234.489 105.659 233.915 105.112L234.515 103.812C235.169 104.346 235.829 104.732 236.495 104.972C237.162 105.212 237.882 105.332 238.655 105.332C239.669 105.332 240.442 105.112 240.975 104.672C241.522 104.219 241.795 103.559 241.795 102.692C241.795 101.866 241.522 101.239 240.975 100.812C240.429 100.386 239.635 100.172 238.595 100.172H236.515V98.7522H238.455C239.362 98.7522 240.075 98.5189 240.595 98.0522C241.129 97.5722 241.395 96.9189 241.395 96.0922C241.395 95.3589 241.149 94.7922 240.655 94.3922C240.175 93.9922 239.489 93.7922 238.595 93.7922C237.129 93.7922 235.849 94.3256 234.755 95.3922L234.155 94.1122C234.675 93.5522 235.335 93.1189 236.135 92.8122C236.949 92.4922 237.802 92.3322 238.695 92.3322C240.055 92.3322 241.115 92.6522 241.875 93.2922C242.649 93.9322 243.035 94.8189 243.035 95.9522C243.035 96.7389 242.835 97.4322 242.435 98.0322C242.035 98.6189 241.482 99.0456 240.775 99.3122C241.615 99.5389 242.269 99.9589 242.735 100.572C243.202 101.172 243.435 101.919 243.435 102.812C243.435 104.026 243.009 104.992 242.155 105.712C241.315 106.432 240.162 106.792 238.695 106.792ZM249.888 106.792C249.168 106.792 248.441 106.639 247.708 106.332C246.974 106.026 246.374 105.612 245.908 105.092L246.528 103.792C247.008 104.312 247.534 104.699 248.108 104.952C248.694 105.206 249.294 105.332 249.908 105.332C251.214 105.332 252.221 104.846 252.928 103.872C253.634 102.899 253.988 101.452 253.988 99.5322V98.5322C253.721 99.4122 253.241 100.106 252.548 100.612C251.868 101.106 251.061 101.352 250.128 101.352C249.301 101.352 248.568 101.166 247.928 100.792C247.288 100.406 246.788 99.8789 246.428 99.2122C246.068 98.5456 245.888 97.7789 245.888 96.9122C245.888 96.0189 246.074 95.2322 246.448 94.5522C246.834 93.8589 247.361 93.3189 248.028 92.9322C248.708 92.5322 249.488 92.3322 250.368 92.3322C252.034 92.3322 253.314 92.9389 254.208 94.1522C255.114 95.3522 255.568 97.0389 255.568 99.2122C255.568 101.639 255.068 103.512 254.068 104.832C253.068 106.139 251.674 106.792 249.888 106.792ZM250.468 99.9722C251.361 99.9722 252.088 99.6856 252.648 99.1122C253.208 98.5256 253.488 97.7722 253.488 96.8522C253.488 95.9189 253.208 95.1656 252.648 94.5922C252.088 94.0056 251.361 93.7122 250.468 93.7122C249.588 93.7122 248.868 94.0056 248.308 94.5922C247.748 95.1656 247.468 95.9189 247.468 96.8522C247.468 97.7722 247.748 98.5256 248.308 99.1122C248.868 99.6856 249.588 99.9722 250.468 99.9722ZM264.38 106.612V103.592H257.88V102.352L264.66 92.5122H266.04V102.192H268.14V103.592H266.04V106.612H264.38ZM264.38 102.192V95.2122L259.58 102.192H264.38ZM271.072 106.612L277.632 93.9322H270.172V92.5122H279.492V93.7522L272.892 106.612H271.072Z" fill="white"/>
<path opacity="0.8" d="M49.7994 153.825C48.9434 153.825 48.2114 153.649 47.6034 153.297C46.9954 152.945 46.5274 152.445 46.1994 151.797C45.8794 151.141 45.7194 150.369 45.7194 149.481C45.7194 148.593 45.8794 147.825 46.1994 147.177C46.5274 146.529 46.9954 146.029 47.6034 145.677C48.2114 145.325 48.9434 145.149 49.7994 145.149C50.3754 145.149 50.9114 145.241 51.4074 145.425C51.9114 145.601 52.3314 145.857 52.6674 146.193L52.2354 147.189C51.8674 146.861 51.4874 146.625 51.0954 146.481C50.7114 146.329 50.2914 146.253 49.8354 146.253C48.9234 146.253 48.2274 146.533 47.7474 147.093C47.2674 147.653 47.0274 148.449 47.0274 149.481C47.0274 150.513 47.2674 151.313 47.7474 151.881C48.2274 152.441 48.9234 152.721 49.8354 152.721C50.2914 152.721 50.7114 152.649 51.0954 152.505C51.4874 152.353 51.8674 152.113 52.2354 151.785L52.6674 152.781C52.3314 153.109 51.9114 153.365 51.4074 153.549C50.9114 153.733 50.3754 153.825 49.7994 153.825ZM55.6576 153.825C55.2496 153.825 54.8856 153.745 54.5656 153.585C54.2456 153.425 53.9896 153.209 53.7976 152.937C53.6136 152.665 53.5216 152.357 53.5216 152.013C53.5216 151.581 53.6296 151.241 53.8456 150.993C54.0696 150.745 54.4336 150.565 54.9376 150.453C55.4496 150.341 56.1376 150.285 57.0016 150.285H57.4096V149.973C57.4096 149.517 57.3136 149.189 57.1216 148.989C56.9296 148.789 56.6136 148.689 56.1736 148.689C55.8376 148.689 55.5016 148.741 55.1656 148.845C54.8296 148.941 54.4856 149.097 54.1336 149.313L53.7616 148.461C54.0656 148.245 54.4456 148.073 54.9016 147.945C55.3576 147.817 55.7936 147.753 56.2096 147.753C57.0096 147.753 57.6016 147.945 57.9856 148.329C58.3696 148.705 58.5616 149.297 58.5616 150.105V153.717H57.4216V152.745C57.2776 153.081 57.0536 153.345 56.7496 153.537C56.4456 153.729 56.0816 153.825 55.6576 153.825ZM55.8976 152.961C56.3296 152.961 56.6896 152.809 56.9776 152.505C57.2656 152.201 57.4096 151.817 57.4096 151.353V151.029H57.0136C56.4296 151.029 55.9696 151.057 55.6336 151.113C55.3056 151.169 55.0696 151.265 54.9256 151.401C54.7896 151.529 54.7216 151.709 54.7216 151.941C54.7216 152.245 54.8256 152.493 55.0336 152.685C55.2416 152.869 55.5296 152.961 55.8976 152.961ZM60.2309 153.717V147.861H61.4069V148.905C61.7109 148.209 62.3429 147.821 63.3029 147.741L63.6989 147.717L63.7829 148.749L63.0509 148.821C61.9869 148.925 61.4549 149.473 61.4549 150.465V153.717H60.2309ZM66.8574 153.825C66.3454 153.825 65.8934 153.705 65.5014 153.465C65.1174 153.217 64.8174 152.865 64.6014 152.409C64.3854 151.953 64.2774 151.413 64.2774 150.789C64.2774 150.165 64.3854 149.629 64.6014 149.181C64.8174 148.725 65.1174 148.373 65.5014 148.125C65.8854 147.877 66.3374 147.753 66.8574 147.753C67.2974 147.753 67.6894 147.849 68.0334 148.041C68.3774 148.233 68.6334 148.493 68.8014 148.821V145.257H70.0134V153.717H68.8254V152.697C68.6574 153.049 68.3974 153.325 68.0454 153.525C67.7014 153.725 67.3054 153.825 66.8574 153.825ZM67.1694 152.889C67.6654 152.889 68.0654 152.709 68.3694 152.349C68.6734 151.989 68.8254 151.469 68.8254 150.789C68.8254 150.109 68.6734 149.593 68.3694 149.241C68.0654 148.881 67.6654 148.701 67.1694 148.701C66.6654 148.701 66.2614 148.881 65.9574 149.241C65.6534 149.593 65.5014 150.109 65.5014 150.789C65.5014 151.469 65.6534 151.989 65.9574 152.349C66.2614 152.709 66.6654 152.889 67.1694 152.889ZM74.9996 153.717V145.257H76.2476V148.905H80.9876V145.257H82.2236V153.717H80.9876V149.949H76.2476V153.717H74.9996ZM86.6108 153.825C86.0188 153.825 85.5068 153.701 85.0748 153.453C84.6428 153.205 84.3068 152.857 84.0668 152.409C83.8348 151.953 83.7188 151.413 83.7188 150.789C83.7188 150.165 83.8348 149.629 84.0668 149.181C84.3068 148.725 84.6428 148.373 85.0748 148.125C85.5068 147.877 86.0188 147.753 86.6108 147.753C87.1868 147.753 87.6908 147.877 88.1228 148.125C88.5548 148.373 88.8908 148.725 89.1308 149.181C89.3708 149.629 89.4908 150.165 89.4908 150.789C89.4908 151.413 89.3708 151.953 89.1308 152.409C88.8908 152.857 88.5548 153.205 88.1228 153.453C87.6908 153.701 87.1868 153.825 86.6108 153.825ZM86.6108 152.889C87.1068 152.889 87.5068 152.709 87.8108 152.349C88.1148 151.989 88.2668 151.469 88.2668 150.789C88.2668 150.109 88.1148 149.593 87.8108 149.241C87.5068 148.881 87.1068 148.701 86.6108 148.701C86.1068 148.701 85.7028 148.881 85.3988 149.241C85.0948 149.593 84.9428 150.109 84.9428 150.789C84.9428 151.469 85.0948 151.989 85.3988 152.349C85.7028 152.709 86.1068 152.889 86.6108 152.889ZM92.76 153.825C92.12 153.825 91.64 153.645 91.32 153.285C91.008 152.925 90.852 152.397 90.852 151.701V145.257H92.064V151.629C92.064 152.421 92.388 152.817 93.036 152.817C93.132 152.817 93.22 152.813 93.3 152.805C93.388 152.797 93.476 152.781 93.564 152.757L93.54 153.729C93.268 153.793 93.008 153.825 92.76 153.825ZM96.6934 153.825C96.1814 153.825 95.7294 153.705 95.3374 153.465C94.9534 153.217 94.6534 152.865 94.4374 152.409C94.2214 151.953 94.1134 151.413 94.1134 150.789C94.1134 150.165 94.2214 149.629 94.4374 149.181C94.6534 148.725 94.9534 148.373 95.3374 148.125C95.7214 147.877 96.1734 147.753 96.6934 147.753C97.1334 147.753 97.5254 147.849 97.8694 148.041C98.2134 148.233 98.4694 148.493 98.6374 148.821V145.257H99.8494V153.717H98.6614V152.697C98.4934 153.049 98.2334 153.325 97.8814 153.525C97.5374 153.725 97.1414 153.825 96.6934 153.825ZM97.0054 152.889C97.5014 152.889 97.9014 152.709 98.2054 152.349C98.5094 151.989 98.6614 151.469 98.6614 150.789C98.6614 150.109 98.5094 149.593 98.2054 149.241C97.9014 148.881 97.5014 148.701 97.0054 148.701C96.5014 148.701 96.0974 148.881 95.7934 149.241C95.4894 149.593 95.3374 150.109 95.3374 150.789C95.3374 151.469 95.4894 151.989 95.7934 152.349C96.0974 152.709 96.5014 152.889 97.0054 152.889ZM104.299 153.825C103.339 153.825 102.583 153.557 102.031 153.021C101.479 152.477 101.203 151.737 101.203 150.801C101.203 150.201 101.323 149.673 101.563 149.217C101.811 148.753 102.151 148.393 102.583 148.137C103.015 147.881 103.511 147.753 104.071 147.753C104.879 147.753 105.515 148.013 105.979 148.533C106.443 149.045 106.675 149.753 106.675 150.657V151.065H102.379C102.467 152.281 103.111 152.889 104.311 152.889C104.647 152.889 104.975 152.837 105.295 152.733C105.623 152.629 105.931 152.457 106.219 152.217L106.579 153.057C106.315 153.297 105.975 153.485 105.559 153.621C105.143 153.757 104.723 153.825 104.299 153.825ZM104.119 148.605C103.615 148.605 103.215 148.761 102.919 149.073C102.623 149.385 102.443 149.801 102.379 150.321H105.655C105.631 149.777 105.487 149.357 105.223 149.061C104.959 148.757 104.591 148.605 104.119 148.605ZM107.997 153.717V147.861H109.173V148.905C109.477 148.209 110.109 147.821 111.069 147.741L111.465 147.717L111.549 148.749L110.817 148.821C109.753 148.925 109.221 149.473 109.221 150.465V153.717H107.997ZM115.757 153.717V145.257H116.705L121.553 151.653V145.257H122.705V153.717H121.781L116.909 147.297V153.717H115.757ZM126.415 153.825C126.007 153.825 125.643 153.745 125.323 153.585C125.003 153.425 124.747 153.209 124.555 152.937C124.371 152.665 124.279 152.357 124.279 152.013C124.279 151.581 124.387 151.241 124.603 150.993C124.827 150.745 125.191 150.565 125.695 150.453C126.207 150.341 126.895 150.285 127.759 150.285H128.167V149.973C128.167 149.517 128.071 149.189 127.879 148.989C127.687 148.789 127.371 148.689 126.931 148.689C126.595 148.689 126.259 148.741 125.923 148.845C125.587 148.941 125.243 149.097 124.891 149.313L124.519 148.461C124.823 148.245 125.203 148.073 125.659 147.945C126.115 147.817 126.551 147.753 126.967 147.753C127.767 147.753 128.359 147.945 128.743 148.329C129.127 148.705 129.319 149.297 129.319 150.105V153.717H128.179V152.745C128.035 153.081 127.811 153.345 127.507 153.537C127.203 153.729 126.839 153.825 126.415 153.825ZM126.655 152.961C127.087 152.961 127.447 152.809 127.735 152.505C128.023 152.201 128.167 151.817 128.167 151.353V151.029H127.771C127.187 151.029 126.727 151.057 126.391 151.113C126.063 151.169 125.827 151.265 125.683 151.401C125.547 151.529 125.479 151.709 125.479 151.941C125.479 152.245 125.583 152.493 125.791 152.685C125.999 152.869 126.287 152.961 126.655 152.961ZM131.013 153.717V147.861H132.189V148.809C132.365 148.473 132.609 148.213 132.921 148.029C133.233 147.845 133.597 147.753 134.013 147.753C134.909 147.753 135.489 148.145 135.753 148.929C135.937 148.561 136.201 148.273 136.545 148.065C136.889 147.857 137.281 147.753 137.721 147.753C139.033 147.753 139.689 148.537 139.689 150.105V153.717H138.477V150.165C138.477 149.669 138.389 149.305 138.213 149.073C138.045 148.841 137.765 148.725 137.373 148.725C136.933 148.725 136.585 148.881 136.329 149.193C136.073 149.497 135.945 149.913 135.945 150.441V153.717H134.733V150.165C134.733 149.669 134.649 149.305 134.481 149.073C134.313 148.841 134.033 148.725 133.641 148.725C133.201 148.725 132.853 148.881 132.597 149.193C132.349 149.497 132.225 149.913 132.225 150.441V153.717H131.013ZM144.131 153.825C143.171 153.825 142.415 153.557 141.863 153.021C141.311 152.477 141.035 151.737 141.035 150.801C141.035 150.201 141.155 149.673 141.395 149.217C141.643 148.753 141.983 148.393 142.415 148.137C142.847 147.881 143.343 147.753 143.903 147.753C144.711 147.753 145.347 148.013 145.811 148.533C146.275 149.045 146.507 149.753 146.507 150.657V151.065H142.211C142.299 152.281 142.943 152.889 144.143 152.889C144.479 152.889 144.807 152.837 145.127 152.733C145.455 152.629 145.763 152.457 146.051 152.217L146.411 153.057C146.147 153.297 145.807 153.485 145.391 153.621C144.975 153.757 144.555 153.825 144.131 153.825ZM143.951 148.605C143.447 148.605 143.047 148.761 142.751 149.073C142.455 149.385 142.275 149.801 142.211 150.321H145.487C145.463 149.777 145.319 149.357 145.055 149.061C144.791 148.757 144.423 148.605 143.951 148.605Z" fill="white"/>
<path opacity="0.8" d="M250.984 153.717V145.257H256.456V146.265H252.184V148.917H256.204V149.925H252.184V152.709H256.456V153.717H250.984ZM257.138 153.717L259.574 150.693L257.294 147.861H258.71L260.282 149.865L261.854 147.861H263.27L260.978 150.705L263.426 153.717H261.986L260.27 151.557L258.566 153.717H257.138ZM264.329 155.877V147.861H265.517V148.857C265.685 148.521 265.941 148.253 266.285 148.053C266.629 147.853 267.025 147.753 267.473 147.753C267.993 147.753 268.445 147.877 268.829 148.125C269.221 148.373 269.521 148.725 269.729 149.181C269.945 149.629 270.053 150.165 270.053 150.789C270.053 151.413 269.945 151.953 269.729 152.409C269.521 152.865 269.221 153.217 268.829 153.465C268.445 153.705 267.993 153.825 267.473 153.825C267.041 153.825 266.653 153.733 266.309 153.549C265.973 153.357 265.717 153.097 265.541 152.769V155.877H264.329ZM267.173 152.889C267.677 152.889 268.077 152.709 268.373 152.349C268.677 151.989 268.829 151.469 268.829 150.789C268.829 150.109 268.677 149.593 268.373 149.241C268.077 148.881 267.677 148.701 267.173 148.701C266.669 148.701 266.265 148.881 265.961 149.241C265.665 149.593 265.517 150.109 265.517 150.789C265.517 151.469 265.665 151.989 265.961 152.349C266.265 152.709 266.669 152.889 267.173 152.889ZM271.31 146.505V145.245H272.726V146.505H271.31ZM271.418 153.717V147.861H272.63V153.717H271.418ZM274.336 153.717V147.861H275.512V148.905C275.816 148.209 276.448 147.821 277.408 147.741L277.804 147.717L277.888 148.749L277.156 148.821C276.092 148.925 275.56 149.473 275.56 150.465V153.717H274.336ZM279.776 155.877L280.82 153.561L278.372 147.861H279.668L281.468 152.313L283.292 147.861H284.54L281.048 155.877H279.776ZM288.695 153.717V145.257H291.683C293.075 145.257 294.147 145.621 294.899 146.349C295.659 147.077 296.039 148.121 296.039 149.481C296.039 150.841 295.659 151.889 294.899 152.625C294.147 153.353 293.075 153.717 291.683 153.717H288.695ZM289.943 152.673H291.611C293.699 152.673 294.743 151.609 294.743 149.481C294.743 147.361 293.699 146.301 291.611 146.301H289.943V152.673ZM299.447 153.825C299.039 153.825 298.675 153.745 298.355 153.585C298.035 153.425 297.779 153.209 297.587 152.937C297.403 152.665 297.311 152.357 297.311 152.013C297.311 151.581 297.419 151.241 297.635 150.993C297.859 150.745 298.223 150.565 298.727 150.453C299.239 150.341 299.927 150.285 300.791 150.285H301.199V149.973C301.199 149.517 301.103 149.189 300.911 148.989C300.719 148.789 300.403 148.689 299.963 148.689C299.627 148.689 299.291 148.741 298.955 148.845C298.619 148.941 298.275 149.097 297.923 149.313L297.551 148.461C297.855 148.245 298.235 148.073 298.691 147.945C299.147 147.817 299.583 147.753 299.999 147.753C300.799 147.753 301.391 147.945 301.775 148.329C302.159 148.705 302.351 149.297 302.351 150.105V153.717H301.211V152.745C301.067 153.081 300.843 153.345 300.539 153.537C300.235 153.729 299.871 153.825 299.447 153.825ZM299.687 152.961C300.119 152.961 300.479 152.809 300.767 152.505C301.055 152.201 301.199 151.817 301.199 151.353V151.029H300.803C300.219 151.029 299.759 151.057 299.423 151.113C299.095 151.169 298.859 151.265 298.715 151.401C298.579 151.529 298.511 151.709 298.511 151.941C298.511 152.245 298.615 152.493 298.823 152.685C299.031 152.869 299.319 152.961 299.687 152.961ZM306.516 153.825C305.78 153.825 305.232 153.637 304.872 153.261C304.512 152.885 304.332 152.341 304.332 151.629V148.797H303.192V147.861H304.332V146.097H305.544V147.861H307.356V148.797H305.544V151.533C305.544 151.957 305.632 152.277 305.808 152.493C305.992 152.709 306.288 152.817 306.696 152.817C306.824 152.817 306.948 152.805 307.068 152.781C307.188 152.749 307.308 152.713 307.428 152.673L307.62 153.585C307.5 153.657 307.332 153.713 307.116 153.753C306.908 153.801 306.708 153.825 306.516 153.825ZM311.092 153.825C310.132 153.825 309.376 153.557 308.824 153.021C308.272 152.477 307.996 151.737 307.996 150.801C307.996 150.201 308.116 149.673 308.356 149.217C308.604 148.753 308.944 148.393 309.376 148.137C309.808 147.881 310.304 147.753 310.864 147.753C311.672 147.753 312.308 148.013 312.772 148.533C313.236 149.045 313.468 149.753 313.468 150.657V151.065H309.172C309.26 152.281 309.904 152.889 311.104 152.889C311.44 152.889 311.768 152.837 312.088 152.733C312.416 152.629 312.724 152.457 313.012 152.217L313.372 153.057C313.108 153.297 312.768 153.485 312.352 153.621C311.936 153.757 311.516 153.825 311.092 153.825ZM310.912 148.605C310.408 148.605 310.008 148.761 309.712 149.073C309.416 149.385 309.236 149.801 309.172 150.321H312.448C312.424 149.777 312.28 149.357 312.016 149.061C311.752 148.757 311.384 148.605 310.912 148.605Z" fill="white"/>
<path d="M46.2932 176.275L46.1812 175.085L47.0912 175.029C48.0058 174.955 48.4632 174.432 48.4632 173.461V166.293H49.9052V173.461C49.9052 174.311 49.6858 174.969 49.2472 175.435C48.8085 175.902 48.1598 176.163 47.3012 176.219L46.2932 176.275ZM54.8555 176.289C53.7355 176.289 52.8535 175.977 52.2095 175.351C51.5655 174.717 51.2435 173.853 51.2435 172.761C51.2435 172.061 51.3835 171.445 51.6635 170.913C51.9529 170.372 52.3495 169.952 52.8535 169.653C53.3575 169.355 53.9362 169.205 54.5895 169.205C55.5322 169.205 56.2742 169.509 56.8155 170.115C57.3569 170.713 57.6275 171.539 57.6275 172.593V173.069H52.6155C52.7182 174.488 53.4695 175.197 54.8695 175.197C55.2615 175.197 55.6442 175.137 56.0175 175.015C56.4002 174.894 56.7595 174.693 57.0955 174.413L57.5155 175.393C57.2075 175.673 56.8109 175.893 56.3255 176.051C55.8402 176.21 55.3502 176.289 54.8555 176.289ZM54.6455 170.199C54.0575 170.199 53.5909 170.381 53.2455 170.745C52.9002 171.109 52.6902 171.595 52.6155 172.201H56.4375C56.4095 171.567 56.2415 171.077 55.9335 170.731C55.6255 170.377 55.1962 170.199 54.6455 170.199ZM58.7729 176.163V169.331H60.1449V170.465C60.3783 170.055 60.6956 169.742 61.0969 169.527C61.5076 169.313 61.9649 169.205 62.4689 169.205C64.0836 169.205 64.8909 170.12 64.8909 171.949V176.163H63.4769V172.033C63.4769 171.445 63.3603 171.016 63.1269 170.745C62.9029 170.475 62.5483 170.339 62.0629 170.339C61.4936 170.339 61.0363 170.521 60.6909 170.885C60.3549 171.24 60.1869 171.711 60.1869 172.299V176.163H58.7729ZM66.4432 176.163V169.331H67.8152V170.465C68.0486 170.055 68.3659 169.742 68.7672 169.527C69.1779 169.313 69.6352 169.205 70.1392 169.205C71.7539 169.205 72.5612 170.12 72.5612 171.949V176.163H71.1472V172.033C71.1472 171.445 71.0306 171.016 70.7972 170.745C70.5732 170.475 70.2186 170.339 69.7332 170.339C69.1639 170.339 68.7066 170.521 68.3612 170.885C68.0252 171.24 67.8572 171.711 67.8572 172.299V176.163H66.4432ZM74.7452 178.683L75.9632 175.981L73.1072 169.331H74.6192L76.7192 174.525L78.8472 169.331H80.3032L76.2292 178.683H74.7452ZM81.4242 176.163V170.423H80.0942V169.331H81.4242V169.205C81.4242 168.263 81.6622 167.553 82.1382 167.077C82.6236 166.601 83.3656 166.335 84.3642 166.279L84.9802 166.237L85.0782 167.301L84.4342 167.343C83.8649 167.381 83.4542 167.535 83.2022 167.805C82.9596 168.076 82.8382 168.477 82.8382 169.009V169.331H84.7562V170.423H82.8382V176.163H81.4242ZM88.4902 176.289C87.3702 176.289 86.4882 175.977 85.8442 175.351C85.2002 174.717 84.8782 173.853 84.8782 172.761C84.8782 172.061 85.0182 171.445 85.2982 170.913C85.5876 170.372 85.9842 169.952 86.4882 169.653C86.9922 169.355 87.5709 169.205 88.2242 169.205C89.1669 169.205 89.9089 169.509 90.4502 170.115C90.9916 170.713 91.2622 171.539 91.2622 172.593V173.069H86.2502C86.3529 174.488 87.1042 175.197 88.5042 175.197C88.8962 175.197 89.2789 175.137 89.6522 175.015C90.0349 174.894 90.3942 174.693 90.7302 174.413L91.1502 175.393C90.8422 175.673 90.4456 175.893 89.9602 176.051C89.4749 176.21 88.9849 176.289 88.4902 176.289ZM88.2802 170.199C87.6922 170.199 87.2256 170.381 86.8802 170.745C86.5349 171.109 86.3249 171.595 86.2502 172.201H90.0722C90.0442 171.567 89.8762 171.077 89.5682 170.731C89.2602 170.377 88.8309 170.199 88.2802 170.199ZM92.4077 176.163V169.331H93.7797V170.549C94.1343 169.737 94.8717 169.285 95.9917 169.191L96.4537 169.163L96.5517 170.367L95.6977 170.451C94.4563 170.573 93.8357 171.212 93.8357 172.369V176.163H92.4077ZM100.67 176.163V166.293H104.156C105.78 166.293 107.031 166.718 107.908 167.567C108.795 168.417 109.238 169.635 109.238 171.221C109.238 172.808 108.795 174.031 107.908 174.889C107.031 175.739 105.78 176.163 104.156 176.163H100.67ZM102.126 174.945H104.072C106.508 174.945 107.726 173.704 107.726 171.221C107.726 168.748 106.508 167.511 104.072 167.511H102.126V174.945ZM113.601 176.289C112.911 176.289 112.313 176.145 111.809 175.855C111.305 175.566 110.913 175.16 110.633 174.637C110.363 174.105 110.227 173.475 110.227 172.747C110.227 172.019 110.363 171.394 110.633 170.871C110.913 170.339 111.305 169.929 111.809 169.639C112.313 169.35 112.911 169.205 113.601 169.205C114.273 169.205 114.861 169.35 115.365 169.639C115.869 169.929 116.261 170.339 116.541 170.871C116.821 171.394 116.961 172.019 116.961 172.747C116.961 173.475 116.821 174.105 116.541 174.637C116.261 175.16 115.869 175.566 115.365 175.855C114.861 176.145 114.273 176.289 113.601 176.289ZM113.601 175.197C114.18 175.197 114.647 174.987 115.001 174.567C115.356 174.147 115.533 173.541 115.533 172.747C115.533 171.954 115.356 171.352 115.001 170.941C114.647 170.521 114.18 170.311 113.601 170.311C113.013 170.311 112.542 170.521 112.187 170.941C111.833 171.352 111.655 171.954 111.655 172.747C111.655 173.541 111.833 174.147 112.187 174.567C112.542 174.987 113.013 175.197 113.601 175.197ZM121.359 176.289C120.239 176.289 119.357 175.977 118.713 175.351C118.069 174.717 117.747 173.853 117.747 172.761C117.747 172.061 117.887 171.445 118.167 170.913C118.457 170.372 118.853 169.952 119.357 169.653C119.861 169.355 120.44 169.205 121.093 169.205C122.036 169.205 122.778 169.509 123.319 170.115C123.861 170.713 124.131 171.539 124.131 172.593V173.069H119.119C119.222 174.488 119.973 175.197 121.373 175.197C121.765 175.197 122.148 175.137 122.521 175.015C122.904 174.894 123.263 174.693 123.599 174.413L124.019 175.393C123.711 175.673 123.315 175.893 122.829 176.051C122.344 176.21 121.854 176.289 121.359 176.289ZM121.149 170.199C120.561 170.199 120.095 170.381 119.749 170.745C119.404 171.109 119.194 171.595 119.119 172.201H122.941C122.913 171.567 122.745 171.077 122.437 170.731C122.129 170.377 121.7 170.199 121.149 170.199Z" fill="white"/>
<path d="M254.625 176.289C253.477 176.289 252.6 175.855 251.993 174.987C251.396 174.11 251.097 172.855 251.097 171.221C251.097 169.56 251.396 168.305 251.993 167.455C252.6 166.597 253.477 166.167 254.625 166.167C255.782 166.167 256.66 166.597 257.257 167.455C257.854 168.305 258.153 169.555 258.153 171.207C258.153 172.85 257.85 174.11 257.243 174.987C256.646 175.855 255.773 176.289 254.625 176.289ZM254.625 175.085C255.334 175.085 255.862 174.773 256.207 174.147C256.552 173.522 256.725 172.542 256.725 171.207C256.725 169.873 256.552 168.902 256.207 168.295C255.871 167.679 255.344 167.371 254.625 167.371C253.916 167.371 253.388 167.679 253.043 168.295C252.698 168.911 252.525 169.882 252.525 171.207C252.525 172.542 252.698 173.522 253.043 174.147C253.388 174.773 253.916 175.085 254.625 175.085ZM262.777 176.289C262.143 176.289 261.527 176.191 260.929 175.995C260.341 175.79 259.851 175.505 259.459 175.141L259.949 174.021C260.808 174.712 261.741 175.057 262.749 175.057C263.393 175.057 263.897 174.885 264.261 174.539C264.625 174.185 264.807 173.723 264.807 173.153C264.807 172.565 264.635 172.085 264.289 171.711C263.944 171.338 263.463 171.151 262.847 171.151C261.979 171.151 261.284 171.511 260.761 172.229H259.753V166.293H265.633V167.511H261.167V170.633C261.69 170.176 262.353 169.947 263.155 169.947C263.781 169.947 264.322 170.078 264.779 170.339C265.237 170.601 265.591 170.969 265.843 171.445C266.095 171.912 266.221 172.458 266.221 173.083C266.221 173.718 266.081 174.278 265.801 174.763C265.521 175.239 265.125 175.613 264.611 175.883C264.098 176.154 263.487 176.289 262.777 176.289ZM267.234 177.087L266.156 176.765L269.754 165.593L270.846 165.915L267.234 177.087ZM271.372 176.163V175.085L274.662 171.557C275.119 171.063 275.446 170.615 275.642 170.213C275.847 169.812 275.95 169.406 275.95 168.995C275.95 167.931 275.325 167.399 274.074 167.399C273.122 167.399 272.268 167.759 271.512 168.477L270.994 167.371C271.367 167.007 271.843 166.718 272.422 166.503C273.001 166.279 273.603 166.167 274.228 166.167C275.245 166.167 276.025 166.401 276.566 166.867C277.117 167.334 277.392 168.001 277.392 168.869C277.392 169.457 277.247 170.031 276.958 170.591C276.678 171.151 276.235 171.749 275.628 172.383L273.192 174.945H277.784V176.163H271.372ZM282.226 176.289C281.564 176.289 280.934 176.191 280.336 175.995C279.739 175.79 279.24 175.505 278.838 175.141L279.342 174.021C279.781 174.376 280.234 174.637 280.7 174.805C281.167 174.973 281.662 175.057 282.184 175.057C282.856 175.057 283.365 174.913 283.71 174.623C284.065 174.334 284.242 173.919 284.242 173.377C284.242 172.836 284.065 172.435 283.71 172.173C283.365 171.912 282.861 171.781 282.198 171.781H280.672V170.563H282.058C282.646 170.563 283.108 170.414 283.444 170.115C283.79 169.817 283.962 169.406 283.962 168.883C283.962 168.407 283.804 168.043 283.486 167.791C283.169 167.53 282.716 167.399 282.128 167.399C281.13 167.399 280.257 167.759 279.51 168.477L279.006 167.371C279.389 166.989 279.865 166.695 280.434 166.489C281.013 166.275 281.615 166.167 282.24 166.167C283.23 166.167 284 166.396 284.55 166.853C285.101 167.301 285.376 167.927 285.376 168.729C285.376 169.271 285.236 169.747 284.956 170.157C284.686 170.568 284.308 170.867 283.822 171.053C284.41 171.203 284.863 171.492 285.18 171.921C285.498 172.341 285.656 172.859 285.656 173.475C285.656 174.343 285.348 175.029 284.732 175.533C284.126 176.037 283.29 176.289 282.226 176.289Z" fill="white"/>
</g>
<defs>
<filter id="filter0_d_11_1445" x="-3.27114" y="0.699708" width="381.542" height="228.542" filterUnits="userSpaceOnUse" color-interpolation-filters="sRGB">
<feFlood flood-opacity="0" result="BackgroundImageFix"/>
<feColorMatrix in="SourceAlpha" type="matrix" values="0 0 0 0 0 0 0 0 0 0 0 0 0 0 0 0 0 0 127 0" result="hardAlpha"/>
<feOffset dy="0.970845"/>
<feGaussianBlur stdDeviation="12.1356"/>
<feColorMatrix type="matrix" values="0 0 0 0 0 0 0 0 0 0 0 0 0 0 0 0 0 0 0.34 0"/>
<feBlend mode="normal" in2="BackgroundImageFix" result="effect1_dropShadow_11_1445"/>
<feBlend mode="normal" in="SourceGraphic" in2="effect1_dropShadow_11_1445" result="shape"/>
</filter>
<filter id="filter1_d_11_1445" x="11" y="15" width="353" height="200" filterUnits="userSpaceOnUse" color-interpolation-filters="sRGB">
<feFlood flood-opacity="0" result="BackgroundImageFix"/>
<feColorMatrix in="SourceAlpha" type="matrix" values="0 0 0 0 0 0 0 0 0 0 0 0 0 0 0 0 0 0 127 0" result="hardAlpha"/>
<feOffset dy="1"/>
<feGaussianBlur stdDeviation="5"/>
<feColorMatrix type="matrix" values="0 0 0 0 0 0 0 0 0 0 0 0 0 0 0 0 0 0 0.05 0"/>
<feBlend mode="normal" in2="BackgroundImageFix" result="effect1_dropShadow_11_1445"/>
<feBlend mode="normal" in="SourceGraphic" in2="effect1_dropShadow_11_1445" result="shape"/>
</filter>
<linearGradient id="paint0_linear_11_1445" x1="255.354" y1="201.424" x2="69.4373" y2="83.9519" gradientUnits="userSpaceOnUse">
<stop stop-color="white"/>
<stop offset="1" stop-color="white" stop-opacity="0"/>
</linearGradient>
<clipPath id="clip0_11_1445">
<rect width="31.0671" height="24.2711" fill="white" transform="translate(46 44)"/>
</clipPath>
</defs>
</svg>
