<svg width="100" height="16" viewBox="0 0 100 16" fill="none" xmlns="http://www.w3.org/2000/svg">
<g clip-path="url(#clip0_11_1228)">
<path d="M15.9859 6.17982C15.9521 6.07614 15.8625 6.00054 15.7545 5.98479L10.5736 5.23185L8.25669 0.537276C8.20858 0.439329 8.10891 0.377468 8.00008 0.377468C7.89125 0.377468 7.7913 0.439329 7.74347 0.537276L5.42625 5.23214L0.245377 5.98507C0.137407 6.00082 0.0480517 6.07615 0.0139707 6.18011C-0.0195374 6.28349 0.00824285 6.39748 0.0864285 6.47337L3.83562 10.1278L2.95037 15.288C2.93204 15.3954 2.97615 15.504 3.06407 15.5681C3.15257 15.6328 3.2697 15.6411 3.36565 15.5899L8.00008 13.1538L12.6339 15.5899C12.6758 15.6119 12.7219 15.6228 12.7674 15.6228C12.8267 15.6228 12.8857 15.6045 12.9358 15.5681C13.024 15.504 13.0681 15.3954 13.0495 15.288L12.1645 10.1281L15.9137 6.47337C15.9916 6.39691 16.0197 6.28321 15.9859 6.17982Z" fill="#F2C94C"/>
</g>
<g clip-path="url(#clip1_11_1228)">
<path d="M36.9859 6.17982C36.9521 6.07614 36.8625 6.00054 36.7545 5.98479L31.5736 5.23185L29.2567 0.537276C29.2086 0.439329 29.1089 0.377468 29.0001 0.377468C28.8913 0.377468 28.7913 0.439329 28.7435 0.537276L26.4263 5.23214L21.2454 5.98507C21.1374 6.00082 21.0481 6.07615 21.014 6.18011C20.9805 6.28349 21.0082 6.39748 21.0864 6.47337L24.8356 10.1278L23.9504 15.288C23.932 15.3954 23.9761 15.504 24.0641 15.5681C24.1526 15.6328 24.2697 15.6411 24.3656 15.5899L29.0001 13.1538L33.6339 15.5899C33.6758 15.6119 33.7219 15.6228 33.7674 15.6228C33.8267 15.6228 33.8857 15.6045 33.9358 15.5681C34.024 15.504 34.0681 15.3954 34.0495 15.288L33.1645 10.1281L36.9137 6.47337C36.9916 6.39691 37.0197 6.28321 36.9859 6.17982Z" fill="#F2C94C"/>
</g>
<g clip-path="url(#clip2_11_1228)">
<path d="M57.9859 6.17982C57.9521 6.07614 57.8625 6.00054 57.7545 5.98479L52.5736 5.23185L50.2567 0.537276C50.2086 0.439329 50.1089 0.377468 50.0001 0.377468C49.8913 0.377468 49.7913 0.439329 49.7435 0.537276L47.4263 5.23214L42.2454 5.98507C42.1374 6.00082 42.0481 6.07615 42.014 6.18011C41.9805 6.28349 42.0082 6.39748 42.0864 6.47337L45.8356 10.1278L44.9504 15.288C44.932 15.3954 44.9761 15.504 45.0641 15.5681C45.1526 15.6328 45.2697 15.6411 45.3656 15.5899L50.0001 13.1538L54.6339 15.5899C54.6758 15.6119 54.7219 15.6228 54.7674 15.6228C54.8267 15.6228 54.8857 15.6045 54.9358 15.5681C55.024 15.504 55.0681 15.3954 55.0495 15.288L54.1645 10.1281L57.9137 6.47337C57.9916 6.39691 58.0197 6.28321 57.9859 6.17982Z" fill="#F2C94C"/>
</g>
<g clip-path="url(#clip3_11_1228)">
<path d="M78.9859 6.17982C78.9521 6.07614 78.8625 6.00054 78.7545 5.98479L73.5736 5.23185L71.2567 0.537276C71.2086 0.439329 71.1089 0.377468 71.0001 0.377468C70.8913 0.377468 70.7913 0.439329 70.7435 0.537276L68.4263 5.23214L63.2454 5.98507C63.1374 6.00082 63.0481 6.07615 63.014 6.18011C62.9805 6.28349 63.0082 6.39748 63.0864 6.47337L66.8356 10.1278L65.9504 15.288C65.932 15.3954 65.9761 15.504 66.0641 15.5681C66.1526 15.6328 66.2697 15.6411 66.3656 15.5899L71.0001 13.1538L75.6339 15.5899C75.6758 15.6119 75.7219 15.6228 75.7674 15.6228C75.8267 15.6228 75.8857 15.6045 75.9358 15.5681C76.024 15.504 76.0681 15.3954 76.0495 15.288L75.1645 10.1281L78.9137 6.47337C78.9916 6.39691 79.0197 6.28321 78.9859 6.17982Z" fill="#F2C94C"/>
</g>
<g clip-path="url(#clip4_11_1228)">
<path d="M99.9859 6.17982C99.9521 6.07614 99.8625 6.00054 99.7545 5.98479L94.5736 5.23185L92.2567 0.537276C92.2086 0.439329 92.1089 0.377468 92.0001 0.377468C91.8913 0.377468 91.7913 0.439329 91.7435 0.537276L89.4263 5.23214L84.2454 5.98507C84.1374 6.00082 84.0481 6.07615 84.014 6.18011C83.9805 6.28349 84.0082 6.39748 84.0864 6.47337L87.8356 10.1278L86.9504 15.288C86.932 15.3954 86.9761 15.504 87.0641 15.5681C87.1526 15.6328 87.2697 15.6411 87.3656 15.5899L92.0001 13.1538L96.6339 15.5899C96.6758 15.6119 96.7219 15.6228 96.7674 15.6228C96.8267 15.6228 96.8857 15.6045 96.9358 15.5681C97.024 15.504 97.0681 15.3954 97.0495 15.288L96.1645 10.1281L99.9137 6.47337C99.9916 6.39691 100.02 6.28321 99.9859 6.17982Z" fill="#F2C94C"/>
</g>
<defs>
<clipPath id="clip0_11_1228">
<rect width="16" height="16" fill="white"/>
</clipPath>
<clipPath id="clip1_11_1228">
<rect width="16" height="16" fill="white" transform="translate(21)"/>
</clipPath>
<clipPath id="clip2_11_1228">
<rect width="16" height="16" fill="white" transform="translate(42)"/>
</clipPath>
<clipPath id="clip3_11_1228">
<rect width="16" height="16" fill="white" transform="translate(63)"/>
</clipPath>
<clipPath id="clip4_11_1228">
<rect width="16" height="16" fill="white" transform="translate(84)"/>
</clipPath>
</defs>
</svg>
