<svg width="343" height="187" viewBox="0 0 343 187" fill="none" xmlns="http://www.w3.org/2000/svg">
<mask id="mask0_11_1446" style="mask-type:alpha" maskUnits="userSpaceOnUse" x="0" y="0" width="333" height="180">
<rect width="333" height="180" rx="7.76676" fill="#222222"/>
</mask>
<g mask="url(#mask0_11_1446)">
<rect width="333" height="180" rx="7.76676" fill="#999999"/>
<path d="M121.837 100C142.307 96.976 163.945 99.9741 180.133 103.599C197.453 107.477 214.853 111.53 232.571 112.573C265.275 114.496 297.965 108.582 327.922 95.3211L334.351 92.4752L342.603 186.647H63L65.0746 170.88C65.3095 169.095 65.6173 167.326 66.0833 165.587C69.2544 153.753 84.3983 105.531 121.837 100Z" fill="url(#paint0_linear_11_1446)" fill-opacity="0.05"/>
</g>
<g clip-path="url(#clip0_11_1446)">
<path d="M43.9835 20.283L37.4375 35.758H33.167L29.9456 23.4079C29.7499 22.6475 29.5803 22.3685 28.9857 22.0487C28.0146 21.5259 26.4108 21.0361 25 20.7318L25.0952 20.283H31.9703C32.4198 20.2823 32.8547 20.4409 33.1964 20.7303C33.5381 21.0196 33.7641 21.4205 33.8334 21.8606L35.5348 30.8157L39.7398 20.283H43.9835ZM60.7175 30.7052C60.7356 26.6214 55.018 26.3959 55.0573 24.5711C55.07 24.0163 55.6033 23.4263 56.7711 23.2751C58.1374 23.1465 59.5135 23.3857 60.7542 23.9673L61.4642 20.6862C60.2554 20.2365 58.9753 20.0041 57.6841 20C53.691 20 50.8799 22.1037 50.8574 25.1152C50.8308 27.344 52.8634 28.586 54.395 29.3271C55.9683 30.0854 56.4962 30.5719 56.4903 31.25C56.4785 32.2889 55.2348 32.7467 54.0719 32.7647C52.0408 32.796 50.8617 32.2207 49.9225 31.7869L49.1909 35.1781C50.134 35.6072 51.8767 35.9817 53.6838 36C57.9285 36 60.7044 33.9233 60.7175 30.7052ZM71.2633 35.758H75L71.7382 20.283H68.2897C67.9213 20.2797 67.5604 20.3861 67.2537 20.5885C66.947 20.7908 66.7088 21.0798 66.5699 21.418L60.5075 35.758H64.749L65.592 33.4461H70.775L71.2633 35.758ZM66.7548 30.2749L68.8818 24.4644L70.1061 30.2749H66.7548ZM49.7566 20.283L46.4158 35.758H42.375L45.7172 20.283H49.7566Z" fill="white"/>
</g>
<path d="M28.2 75.6922L26.92 74.9522L28.42 72.5922L25.64 72.7122V71.2522L28.44 71.3922L26.94 69.0122L28.2 68.2722L29.52 70.8922L30.82 68.2722L32.1 69.0322L30.58 71.3922L33.38 71.2522V72.7122L30.58 72.5922L32.1 74.9522L30.82 75.6722L29.52 73.0522L28.2 75.6922ZM42.4773 75.6922L41.1973 74.9522L42.6973 72.5922L39.9173 72.7122V71.2522L42.7173 71.3922L41.2173 69.0122L42.4773 68.2722L43.7973 70.8922L45.0973 68.2722L46.3773 69.0322L44.8573 71.3922L47.6573 71.2522V72.7122L44.8573 72.5922L46.3773 74.9522L45.0973 75.6722L43.7973 73.0522L42.4773 75.6922ZM56.7547 75.6922L55.4747 74.9522L56.9747 72.5922L54.1947 72.7122V71.2522L56.9947 71.3922L55.4947 69.0122L56.7547 68.2722L58.0747 70.8922L59.3747 68.2722L60.6547 69.0322L59.1347 71.3922L61.9347 71.2522V72.7122L59.1347 72.5922L60.6547 74.9522L59.3747 75.6722L58.0747 73.0522L56.7547 75.6922ZM71.032 75.6922L69.752 74.9522L71.252 72.5922L68.472 72.7122V71.2522L71.272 71.3922L69.772 69.0122L71.032 68.2722L72.352 70.8922L73.652 68.2722L74.932 69.0322L73.412 71.3922L76.212 71.2522V72.7122L73.412 72.5922L74.932 74.9522L73.652 75.6722L72.352 73.0522L71.032 75.6922ZM90.5633 75.6922L89.2833 74.9522L90.7833 72.5922L88.0033 72.7122V71.2522L90.8033 71.3922L89.3033 69.0122L90.5633 68.2722L91.8833 70.8922L93.1833 68.2722L94.4633 69.0322L92.9433 71.3922L95.7433 71.2522V72.7122L92.9433 72.5922L94.4633 74.9522L93.1833 75.6722L91.8833 73.0522L90.5633 75.6922ZM104.841 75.6922L103.561 74.9522L105.061 72.5922L102.281 72.7122V71.2522L105.081 71.3922L103.581 69.0122L104.841 68.2722L106.161 70.8922L107.461 68.2722L108.741 69.0322L107.221 71.3922L110.021 71.2522V72.7122L107.221 72.5922L108.741 74.9522L107.461 75.6722L106.161 73.0522L104.841 75.6922ZM119.118 75.6922L117.838 74.9522L119.338 72.5922L116.558 72.7122V71.2522L119.358 71.3922L117.858 69.0122L119.118 68.2722L120.438 70.8922L121.738 68.2722L123.018 69.0322L121.498 71.3922L124.298 71.2522V72.7122L121.498 72.5922L123.018 74.9522L121.738 75.6722L120.438 73.0522L119.118 75.6922ZM133.395 75.6922L132.115 74.9522L133.615 72.5922L130.835 72.7122V71.2522L133.635 71.3922L132.135 69.0122L133.395 68.2722L134.715 70.8922L136.015 68.2722L137.295 69.0322L135.775 71.3922L138.575 71.2522V72.7122L135.775 72.5922L137.295 74.9522L136.015 75.6722L134.715 73.0522L133.395 75.6922ZM152.927 75.6922L151.647 74.9522L153.147 72.5922L150.367 72.7122V71.2522L153.167 71.3922L151.667 69.0122L152.927 68.2722L154.247 70.8922L155.547 68.2722L156.827 69.0322L155.307 71.3922L158.107 71.2522V72.7122L155.307 72.5922L156.827 74.9522L155.547 75.6722L154.247 73.0522L152.927 75.6922ZM167.204 75.6922L165.924 74.9522L167.424 72.5922L164.644 72.7122V71.2522L167.444 71.3922L165.944 69.0122L167.204 68.2722L168.524 70.8922L169.824 68.2722L171.104 69.0322L169.584 71.3922L172.384 71.2522V72.7122L169.584 72.5922L171.104 74.9522L169.824 75.6722L168.524 73.0522L167.204 75.6922ZM181.481 75.6922L180.201 74.9522L181.701 72.5922L178.921 72.7122V71.2522L181.721 71.3922L180.221 69.0122L181.481 68.2722L182.801 70.8922L184.101 68.2722L185.381 69.0322L183.861 71.3922L186.661 71.2522V72.7122L183.861 72.5922L185.381 74.9522L184.101 75.6722L182.801 73.0522L181.481 75.6922ZM195.759 75.6922L194.479 74.9522L195.979 72.5922L193.199 72.7122V71.2522L195.999 71.3922L194.499 69.0122L195.759 68.2722L197.079 70.8922L198.379 68.2722L199.659 69.0322L198.139 71.3922L200.939 71.2522V72.7122L198.139 72.5922L199.659 74.9522L198.379 75.6722L197.079 73.0522L195.759 75.6922ZM217.695 82.7922C216.762 82.7922 215.875 82.6522 215.035 82.3722C214.195 82.0789 213.489 81.6589 212.915 81.1122L213.515 79.8122C214.169 80.3456 214.829 80.7322 215.495 80.9722C216.162 81.2122 216.882 81.3322 217.655 81.3322C218.669 81.3322 219.442 81.1122 219.975 80.6722C220.522 80.2189 220.795 79.5589 220.795 78.6922C220.795 77.8656 220.522 77.2389 219.975 76.8122C219.429 76.3856 218.635 76.1722 217.595 76.1722H215.515V74.7522H217.455C218.362 74.7522 219.075 74.5189 219.595 74.0522C220.129 73.5722 220.395 72.9189 220.395 72.0922C220.395 71.3589 220.149 70.7922 219.655 70.3922C219.175 69.9922 218.489 69.7922 217.595 69.7922C216.129 69.7922 214.849 70.3256 213.755 71.3922L213.155 70.1122C213.675 69.5522 214.335 69.1189 215.135 68.8122C215.949 68.4922 216.802 68.3322 217.695 68.3322C219.055 68.3322 220.115 68.6522 220.875 69.2922C221.649 69.9322 222.035 70.8189 222.035 71.9522C222.035 72.7389 221.835 73.4322 221.435 74.0322C221.035 74.6189 220.482 75.0456 219.775 75.3122C220.615 75.5389 221.269 75.9589 221.735 76.5722C222.202 77.1722 222.435 77.9189 222.435 78.8122C222.435 80.0256 222.009 80.9922 221.155 81.7122C220.315 82.4322 219.162 82.7922 217.695 82.7922ZM228.888 82.7922C228.168 82.7922 227.441 82.6389 226.708 82.3322C225.974 82.0256 225.374 81.6122 224.908 81.0922L225.528 79.7922C226.008 80.3122 226.534 80.6989 227.108 80.9522C227.694 81.2056 228.294 81.3322 228.908 81.3322C230.214 81.3322 231.221 80.8456 231.928 79.8722C232.634 78.8989 232.988 77.4522 232.988 75.5322V74.5322C232.721 75.4122 232.241 76.1056 231.548 76.6122C230.868 77.1056 230.061 77.3522 229.128 77.3522C228.301 77.3522 227.568 77.1656 226.928 76.7922C226.288 76.4056 225.788 75.8789 225.428 75.2122C225.068 74.5456 224.888 73.7789 224.888 72.9122C224.888 72.0189 225.074 71.2322 225.448 70.5522C225.834 69.8589 226.361 69.3189 227.028 68.9322C227.708 68.5322 228.488 68.3322 229.368 68.3322C231.034 68.3322 232.314 68.9389 233.208 70.1522C234.114 71.3522 234.568 73.0389 234.568 75.2122C234.568 77.6389 234.068 79.5122 233.068 80.8322C232.068 82.1389 230.674 82.7922 228.888 82.7922ZM229.468 75.9722C230.361 75.9722 231.088 75.6856 231.648 75.1122C232.208 74.5256 232.488 73.7722 232.488 72.8522C232.488 71.9189 232.208 71.1656 231.648 70.5922C231.088 70.0056 230.361 69.7122 229.468 69.7122C228.588 69.7122 227.868 70.0056 227.308 70.5922C226.748 71.1656 226.468 71.9189 226.468 72.8522C226.468 73.7722 226.748 74.5256 227.308 75.1122C227.868 75.6856 228.588 75.9722 229.468 75.9722ZM243.38 82.6122V79.5922H236.88V78.3522L243.66 68.5122H245.04V78.1922H247.14V79.5922H245.04V82.6122H243.38ZM243.38 78.1922V71.2122L238.58 78.1922H243.38ZM250.072 82.6122L256.632 69.9322H249.172V68.5122H258.492V69.7522L251.892 82.6122H250.072Z" fill="white"/>
<path opacity="0.8" d="M28.7994 129.825C27.9434 129.825 27.2114 129.649 26.6034 129.297C25.9954 128.945 25.5274 128.445 25.1994 127.797C24.8794 127.141 24.7194 126.369 24.7194 125.481C24.7194 124.593 24.8794 123.825 25.1994 123.177C25.5274 122.529 25.9954 122.029 26.6034 121.677C27.2114 121.325 27.9434 121.149 28.7994 121.149C29.3754 121.149 29.9114 121.241 30.4074 121.425C30.9114 121.601 31.3314 121.857 31.6674 122.193L31.2354 123.189C30.8674 122.861 30.4874 122.625 30.0954 122.481C29.7114 122.329 29.2914 122.253 28.8354 122.253C27.9234 122.253 27.2274 122.533 26.7474 123.093C26.2674 123.653 26.0274 124.449 26.0274 125.481C26.0274 126.513 26.2674 127.313 26.7474 127.881C27.2274 128.441 27.9234 128.721 28.8354 128.721C29.2914 128.721 29.7114 128.649 30.0954 128.505C30.4874 128.353 30.8674 128.113 31.2354 127.785L31.6674 128.781C31.3314 129.109 30.9114 129.365 30.4074 129.549C29.9114 129.733 29.3754 129.825 28.7994 129.825ZM34.6576 129.825C34.2496 129.825 33.8856 129.745 33.5656 129.585C33.2456 129.425 32.9896 129.209 32.7976 128.937C32.6136 128.665 32.5216 128.357 32.5216 128.013C32.5216 127.581 32.6296 127.241 32.8456 126.993C33.0696 126.745 33.4336 126.565 33.9376 126.453C34.4496 126.341 35.1376 126.285 36.0016 126.285H36.4096V125.973C36.4096 125.517 36.3136 125.189 36.1216 124.989C35.9296 124.789 35.6136 124.689 35.1736 124.689C34.8376 124.689 34.5016 124.741 34.1656 124.845C33.8296 124.941 33.4856 125.097 33.1336 125.313L32.7616 124.461C33.0656 124.245 33.4456 124.073 33.9016 123.945C34.3576 123.817 34.7936 123.753 35.2096 123.753C36.0096 123.753 36.6016 123.945 36.9856 124.329C37.3696 124.705 37.5616 125.297 37.5616 126.105V129.717H36.4216V128.745C36.2776 129.081 36.0536 129.345 35.7496 129.537C35.4456 129.729 35.0816 129.825 34.6576 129.825ZM34.8976 128.961C35.3296 128.961 35.6896 128.809 35.9776 128.505C36.2656 128.201 36.4096 127.817 36.4096 127.353V127.029H36.0136C35.4296 127.029 34.9696 127.057 34.6336 127.113C34.3056 127.169 34.0696 127.265 33.9256 127.401C33.7896 127.529 33.7216 127.709 33.7216 127.941C33.7216 128.245 33.8256 128.493 34.0336 128.685C34.2416 128.869 34.5296 128.961 34.8976 128.961ZM39.2309 129.717V123.861H40.4069V124.905C40.7109 124.209 41.3429 123.821 42.3029 123.741L42.6989 123.717L42.7829 124.749L42.0509 124.821C40.9869 124.925 40.4549 125.473 40.4549 126.465V129.717H39.2309ZM45.8574 129.825C45.3454 129.825 44.8934 129.705 44.5014 129.465C44.1174 129.217 43.8174 128.865 43.6014 128.409C43.3854 127.953 43.2774 127.413 43.2774 126.789C43.2774 126.165 43.3854 125.629 43.6014 125.181C43.8174 124.725 44.1174 124.373 44.5014 124.125C44.8854 123.877 45.3374 123.753 45.8574 123.753C46.2974 123.753 46.6894 123.849 47.0334 124.041C47.3774 124.233 47.6334 124.493 47.8014 124.821V121.257H49.0134V129.717H47.8254V128.697C47.6574 129.049 47.3974 129.325 47.0454 129.525C46.7014 129.725 46.3054 129.825 45.8574 129.825ZM46.1694 128.889C46.6654 128.889 47.0654 128.709 47.3694 128.349C47.6734 127.989 47.8254 127.469 47.8254 126.789C47.8254 126.109 47.6734 125.593 47.3694 125.241C47.0654 124.881 46.6654 124.701 46.1694 124.701C45.6654 124.701 45.2614 124.881 44.9574 125.241C44.6534 125.593 44.5014 126.109 44.5014 126.789C44.5014 127.469 44.6534 127.989 44.9574 128.349C45.2614 128.709 45.6654 128.889 46.1694 128.889ZM53.9996 129.717V121.257H55.2476V124.905H59.9876V121.257H61.2236V129.717H59.9876V125.949H55.2476V129.717H53.9996ZM65.6108 129.825C65.0188 129.825 64.5068 129.701 64.0748 129.453C63.6428 129.205 63.3068 128.857 63.0668 128.409C62.8348 127.953 62.7188 127.413 62.7188 126.789C62.7188 126.165 62.8348 125.629 63.0668 125.181C63.3068 124.725 63.6428 124.373 64.0748 124.125C64.5068 123.877 65.0188 123.753 65.6108 123.753C66.1868 123.753 66.6908 123.877 67.1228 124.125C67.5548 124.373 67.8908 124.725 68.1308 125.181C68.3708 125.629 68.4908 126.165 68.4908 126.789C68.4908 127.413 68.3708 127.953 68.1308 128.409C67.8908 128.857 67.5548 129.205 67.1228 129.453C66.6908 129.701 66.1868 129.825 65.6108 129.825ZM65.6108 128.889C66.1068 128.889 66.5068 128.709 66.8108 128.349C67.1148 127.989 67.2668 127.469 67.2668 126.789C67.2668 126.109 67.1148 125.593 66.8108 125.241C66.5068 124.881 66.1068 124.701 65.6108 124.701C65.1068 124.701 64.7028 124.881 64.3988 125.241C64.0948 125.593 63.9428 126.109 63.9428 126.789C63.9428 127.469 64.0948 127.989 64.3988 128.349C64.7028 128.709 65.1068 128.889 65.6108 128.889ZM71.76 129.825C71.12 129.825 70.64 129.645 70.32 129.285C70.008 128.925 69.852 128.397 69.852 127.701V121.257H71.064V127.629C71.064 128.421 71.388 128.817 72.036 128.817C72.132 128.817 72.22 128.813 72.3 128.805C72.388 128.797 72.476 128.781 72.564 128.757L72.54 129.729C72.268 129.793 72.008 129.825 71.76 129.825ZM75.6934 129.825C75.1814 129.825 74.7294 129.705 74.3374 129.465C73.9534 129.217 73.6534 128.865 73.4374 128.409C73.2214 127.953 73.1134 127.413 73.1134 126.789C73.1134 126.165 73.2214 125.629 73.4374 125.181C73.6534 124.725 73.9534 124.373 74.3374 124.125C74.7214 123.877 75.1734 123.753 75.6934 123.753C76.1334 123.753 76.5254 123.849 76.8694 124.041C77.2134 124.233 77.4694 124.493 77.6374 124.821V121.257H78.8494V129.717H77.6614V128.697C77.4934 129.049 77.2334 129.325 76.8814 129.525C76.5374 129.725 76.1414 129.825 75.6934 129.825ZM76.0054 128.889C76.5014 128.889 76.9014 128.709 77.2054 128.349C77.5094 127.989 77.6614 127.469 77.6614 126.789C77.6614 126.109 77.5094 125.593 77.2054 125.241C76.9014 124.881 76.5014 124.701 76.0054 124.701C75.5014 124.701 75.0974 124.881 74.7934 125.241C74.4894 125.593 74.3374 126.109 74.3374 126.789C74.3374 127.469 74.4894 127.989 74.7934 128.349C75.0974 128.709 75.5014 128.889 76.0054 128.889ZM83.2992 129.825C82.3392 129.825 81.5832 129.557 81.0312 129.021C80.4792 128.477 80.2032 127.737 80.2032 126.801C80.2032 126.201 80.3232 125.673 80.5632 125.217C80.8112 124.753 81.1512 124.393 81.5832 124.137C82.0152 123.881 82.5112 123.753 83.0712 123.753C83.8792 123.753 84.5152 124.013 84.9792 124.533C85.4432 125.045 85.6752 125.753 85.6752 126.657V127.065H81.3792C81.4672 128.281 82.1112 128.889 83.3112 128.889C83.6472 128.889 83.9752 128.837 84.2952 128.733C84.6232 128.629 84.9312 128.457 85.2192 128.217L85.5792 129.057C85.3152 129.297 84.9752 129.485 84.5592 129.621C84.1432 129.757 83.7232 129.825 83.2992 129.825ZM83.1192 124.605C82.6152 124.605 82.2152 124.761 81.9192 125.073C81.6232 125.385 81.4432 125.801 81.3792 126.321H84.6552C84.6312 125.777 84.4872 125.357 84.2232 125.061C83.9592 124.757 83.5912 124.605 83.1192 124.605ZM86.9965 129.717V123.861H88.1725V124.905C88.4765 124.209 89.1085 123.821 90.0685 123.741L90.4645 123.717L90.5485 124.749L89.8165 124.821C88.7525 124.925 88.2205 125.473 88.2205 126.465V129.717H86.9965ZM94.7574 129.717V121.257H95.7054L100.553 127.653V121.257H101.705V129.717H100.781L95.9094 123.297V129.717H94.7574ZM105.415 129.825C105.007 129.825 104.643 129.745 104.323 129.585C104.003 129.425 103.747 129.209 103.555 128.937C103.371 128.665 103.279 128.357 103.279 128.013C103.279 127.581 103.387 127.241 103.603 126.993C103.827 126.745 104.191 126.565 104.695 126.453C105.207 126.341 105.895 126.285 106.759 126.285H107.167V125.973C107.167 125.517 107.071 125.189 106.879 124.989C106.687 124.789 106.371 124.689 105.931 124.689C105.595 124.689 105.259 124.741 104.923 124.845C104.587 124.941 104.243 125.097 103.891 125.313L103.519 124.461C103.823 124.245 104.203 124.073 104.659 123.945C105.115 123.817 105.551 123.753 105.967 123.753C106.767 123.753 107.359 123.945 107.743 124.329C108.127 124.705 108.319 125.297 108.319 126.105V129.717H107.179V128.745C107.035 129.081 106.811 129.345 106.507 129.537C106.203 129.729 105.839 129.825 105.415 129.825ZM105.655 128.961C106.087 128.961 106.447 128.809 106.735 128.505C107.023 128.201 107.167 127.817 107.167 127.353V127.029H106.771C106.187 127.029 105.727 127.057 105.391 127.113C105.063 127.169 104.827 127.265 104.683 127.401C104.547 127.529 104.479 127.709 104.479 127.941C104.479 128.245 104.583 128.493 104.791 128.685C104.999 128.869 105.287 128.961 105.655 128.961ZM110.013 129.717V123.861H111.189V124.809C111.365 124.473 111.609 124.213 111.921 124.029C112.233 123.845 112.597 123.753 113.013 123.753C113.909 123.753 114.489 124.145 114.753 124.929C114.937 124.561 115.201 124.273 115.545 124.065C115.889 123.857 116.281 123.753 116.721 123.753C118.033 123.753 118.689 124.537 118.689 126.105V129.717H117.477V126.165C117.477 125.669 117.389 125.305 117.213 125.073C117.045 124.841 116.765 124.725 116.373 124.725C115.933 124.725 115.585 124.881 115.329 125.193C115.073 125.497 114.945 125.913 114.945 126.441V129.717H113.733V126.165C113.733 125.669 113.649 125.305 113.481 125.073C113.313 124.841 113.033 124.725 112.641 124.725C112.201 124.725 111.853 124.881 111.597 125.193C111.349 125.497 111.225 125.913 111.225 126.441V129.717H110.013ZM123.131 129.825C122.171 129.825 121.415 129.557 120.863 129.021C120.311 128.477 120.035 127.737 120.035 126.801C120.035 126.201 120.155 125.673 120.395 125.217C120.643 124.753 120.983 124.393 121.415 124.137C121.847 123.881 122.343 123.753 122.903 123.753C123.711 123.753 124.347 124.013 124.811 124.533C125.275 125.045 125.507 125.753 125.507 126.657V127.065H121.211C121.299 128.281 121.943 128.889 123.143 128.889C123.479 128.889 123.807 128.837 124.127 128.733C124.455 128.629 124.763 128.457 125.051 128.217L125.411 129.057C125.147 129.297 124.807 129.485 124.391 129.621C123.975 129.757 123.555 129.825 123.131 129.825ZM122.951 124.605C122.447 124.605 122.047 124.761 121.751 125.073C121.455 125.385 121.275 125.801 121.211 126.321H124.487C124.463 125.777 124.319 125.357 124.055 125.061C123.791 124.757 123.423 124.605 122.951 124.605Z" fill="white"/>
<path opacity="0.8" d="M229.984 129.717V121.257H235.456V122.265H231.184V124.917H235.204V125.925H231.184V128.709H235.456V129.717H229.984ZM236.138 129.717L238.574 126.693L236.294 123.861H237.71L239.282 125.865L240.854 123.861H242.27L239.978 126.705L242.426 129.717H240.986L239.27 127.557L237.566 129.717H236.138ZM243.329 131.877V123.861H244.517V124.857C244.685 124.521 244.941 124.253 245.285 124.053C245.629 123.853 246.025 123.753 246.473 123.753C246.993 123.753 247.445 123.877 247.829 124.125C248.221 124.373 248.521 124.725 248.729 125.181C248.945 125.629 249.053 126.165 249.053 126.789C249.053 127.413 248.945 127.953 248.729 128.409C248.521 128.865 248.221 129.217 247.829 129.465C247.445 129.705 246.993 129.825 246.473 129.825C246.041 129.825 245.653 129.733 245.309 129.549C244.973 129.357 244.717 129.097 244.541 128.769V131.877H243.329ZM246.173 128.889C246.677 128.889 247.077 128.709 247.373 128.349C247.677 127.989 247.829 127.469 247.829 126.789C247.829 126.109 247.677 125.593 247.373 125.241C247.077 124.881 246.677 124.701 246.173 124.701C245.669 124.701 245.265 124.881 244.961 125.241C244.665 125.593 244.517 126.109 244.517 126.789C244.517 127.469 244.665 127.989 244.961 128.349C245.265 128.709 245.669 128.889 246.173 128.889ZM250.31 122.505V121.245H251.726V122.505H250.31ZM250.418 129.717V123.861H251.63V129.717H250.418ZM253.336 129.717V123.861H254.512V124.905C254.816 124.209 255.448 123.821 256.408 123.741L256.804 123.717L256.888 124.749L256.156 124.821C255.092 124.925 254.56 125.473 254.56 126.465V129.717H253.336ZM258.776 131.877L259.82 129.561L257.372 123.861H258.668L260.468 128.313L262.292 123.861H263.54L260.048 131.877H258.776ZM267.695 129.717V121.257H270.683C272.075 121.257 273.147 121.621 273.899 122.349C274.659 123.077 275.039 124.121 275.039 125.481C275.039 126.841 274.659 127.889 273.899 128.625C273.147 129.353 272.075 129.717 270.683 129.717H267.695ZM268.943 128.673H270.611C272.699 128.673 273.743 127.609 273.743 125.481C273.743 123.361 272.699 122.301 270.611 122.301H268.943V128.673ZM278.447 129.825C278.039 129.825 277.675 129.745 277.355 129.585C277.035 129.425 276.779 129.209 276.587 128.937C276.403 128.665 276.311 128.357 276.311 128.013C276.311 127.581 276.419 127.241 276.635 126.993C276.859 126.745 277.223 126.565 277.727 126.453C278.239 126.341 278.927 126.285 279.791 126.285H280.199V125.973C280.199 125.517 280.103 125.189 279.911 124.989C279.719 124.789 279.403 124.689 278.963 124.689C278.627 124.689 278.291 124.741 277.955 124.845C277.619 124.941 277.275 125.097 276.923 125.313L276.551 124.461C276.855 124.245 277.235 124.073 277.691 123.945C278.147 123.817 278.583 123.753 278.999 123.753C279.799 123.753 280.391 123.945 280.775 124.329C281.159 124.705 281.351 125.297 281.351 126.105V129.717H280.211V128.745C280.067 129.081 279.843 129.345 279.539 129.537C279.235 129.729 278.871 129.825 278.447 129.825ZM278.687 128.961C279.119 128.961 279.479 128.809 279.767 128.505C280.055 128.201 280.199 127.817 280.199 127.353V127.029H279.803C279.219 127.029 278.759 127.057 278.423 127.113C278.095 127.169 277.859 127.265 277.715 127.401C277.579 127.529 277.511 127.709 277.511 127.941C277.511 128.245 277.615 128.493 277.823 128.685C278.031 128.869 278.319 128.961 278.687 128.961ZM285.516 129.825C284.78 129.825 284.232 129.637 283.872 129.261C283.512 128.885 283.332 128.341 283.332 127.629V124.797H282.192V123.861H283.332V122.097H284.544V123.861H286.356V124.797H284.544V127.533C284.544 127.957 284.632 128.277 284.808 128.493C284.992 128.709 285.288 128.817 285.696 128.817C285.824 128.817 285.948 128.805 286.068 128.781C286.188 128.749 286.308 128.713 286.428 128.673L286.62 129.585C286.5 129.657 286.332 129.713 286.116 129.753C285.908 129.801 285.708 129.825 285.516 129.825ZM290.092 129.825C289.132 129.825 288.376 129.557 287.824 129.021C287.272 128.477 286.996 127.737 286.996 126.801C286.996 126.201 287.116 125.673 287.356 125.217C287.604 124.753 287.944 124.393 288.376 124.137C288.808 123.881 289.304 123.753 289.864 123.753C290.672 123.753 291.308 124.013 291.772 124.533C292.236 125.045 292.468 125.753 292.468 126.657V127.065H288.172C288.26 128.281 288.904 128.889 290.104 128.889C290.44 128.889 290.768 128.837 291.088 128.733C291.416 128.629 291.724 128.457 292.012 128.217L292.372 129.057C292.108 129.297 291.768 129.485 291.352 129.621C290.936 129.757 290.516 129.825 290.092 129.825ZM289.912 124.605C289.408 124.605 289.008 124.761 288.712 125.073C288.416 125.385 288.236 125.801 288.172 126.321H291.448C291.424 125.777 291.28 125.357 291.016 125.061C290.752 124.757 290.384 124.605 289.912 124.605Z" fill="white"/>
<path d="M25.2932 152.275L25.1812 151.085L26.0912 151.029C27.0058 150.955 27.4632 150.432 27.4632 149.461V142.293H28.9052V149.461C28.9052 150.311 28.6858 150.969 28.2472 151.435C27.8085 151.902 27.1598 152.163 26.3012 152.219L25.2932 152.275ZM33.8555 152.289C32.7355 152.289 31.8535 151.977 31.2095 151.351C30.5655 150.717 30.2435 149.853 30.2435 148.761C30.2435 148.061 30.3835 147.445 30.6635 146.913C30.9529 146.372 31.3495 145.952 31.8535 145.653C32.3575 145.355 32.9362 145.205 33.5895 145.205C34.5322 145.205 35.2742 145.509 35.8155 146.115C36.3569 146.713 36.6275 147.539 36.6275 148.593V149.069H31.6155C31.7182 150.488 32.4695 151.197 33.8695 151.197C34.2615 151.197 34.6442 151.137 35.0175 151.015C35.4002 150.894 35.7595 150.693 36.0955 150.413L36.5155 151.393C36.2075 151.673 35.8109 151.893 35.3255 152.051C34.8402 152.21 34.3502 152.289 33.8555 152.289ZM33.6455 146.199C33.0575 146.199 32.5909 146.381 32.2455 146.745C31.9002 147.109 31.6902 147.595 31.6155 148.201H35.4375C35.4095 147.567 35.2415 147.077 34.9335 146.731C34.6255 146.377 34.1962 146.199 33.6455 146.199ZM37.7729 152.163V145.331H39.1449V146.465C39.3783 146.055 39.6956 145.742 40.0969 145.527C40.5076 145.313 40.9649 145.205 41.4689 145.205C43.0836 145.205 43.8909 146.12 43.8909 147.949V152.163H42.4769V148.033C42.4769 147.445 42.3603 147.016 42.1269 146.745C41.9029 146.475 41.5483 146.339 41.0629 146.339C40.4936 146.339 40.0363 146.521 39.6909 146.885C39.3549 147.24 39.1869 147.711 39.1869 148.299V152.163H37.7729ZM45.4432 152.163V145.331H46.8152V146.465C47.0486 146.055 47.3659 145.742 47.7672 145.527C48.1779 145.313 48.6352 145.205 49.1392 145.205C50.7539 145.205 51.5612 146.12 51.5612 147.949V152.163H50.1472V148.033C50.1472 147.445 50.0306 147.016 49.7972 146.745C49.5732 146.475 49.2186 146.339 48.7332 146.339C48.1639 146.339 47.7066 146.521 47.3612 146.885C47.0252 147.24 46.8572 147.711 46.8572 148.299V152.163H45.4432ZM53.7452 154.683L54.9632 151.981L52.1072 145.331H53.6192L55.7192 150.525L57.8472 145.331H59.3032L55.2292 154.683H53.7452ZM60.4242 152.163V146.423H59.0942V145.331H60.4242V145.205C60.4242 144.263 60.6622 143.553 61.1382 143.077C61.6236 142.601 62.3656 142.335 63.3642 142.279L63.9802 142.237L64.0782 143.301L63.4342 143.343C62.8649 143.381 62.4542 143.535 62.2022 143.805C61.9596 144.076 61.8382 144.477 61.8382 145.009V145.331H63.7562V146.423H61.8382V152.163H60.4242ZM67.4902 152.289C66.3702 152.289 65.4882 151.977 64.8442 151.351C64.2002 150.717 63.8782 149.853 63.8782 148.761C63.8782 148.061 64.0182 147.445 64.2982 146.913C64.5876 146.372 64.9842 145.952 65.4882 145.653C65.9922 145.355 66.5709 145.205 67.2242 145.205C68.1669 145.205 68.9089 145.509 69.4502 146.115C69.9916 146.713 70.2622 147.539 70.2622 148.593V149.069H65.2502C65.3529 150.488 66.1042 151.197 67.5042 151.197C67.8962 151.197 68.2789 151.137 68.6522 151.015C69.0349 150.894 69.3942 150.693 69.7302 150.413L70.1502 151.393C69.8422 151.673 69.4456 151.893 68.9602 152.051C68.4749 152.21 67.9849 152.289 67.4902 152.289ZM67.2802 146.199C66.6922 146.199 66.2256 146.381 65.8802 146.745C65.5349 147.109 65.3249 147.595 65.2502 148.201H69.0722C69.0442 147.567 68.8762 147.077 68.5682 146.731C68.2602 146.377 67.8309 146.199 67.2802 146.199ZM71.4077 152.163V145.331H72.7797V146.549C73.1343 145.737 73.8717 145.285 74.9917 145.191L75.4537 145.163L75.5517 146.367L74.6977 146.451C73.4563 146.573 72.8357 147.212 72.8357 148.369V152.163H71.4077ZM79.6698 152.163V142.293H83.1558C84.7798 142.293 86.0305 142.718 86.9078 143.567C87.7945 144.417 88.2378 145.635 88.2378 147.221C88.2378 148.808 87.7945 150.031 86.9078 150.889C86.0305 151.739 84.7798 152.163 83.1558 152.163H79.6698ZM81.1258 150.945H83.0718C85.5078 150.945 86.7258 149.704 86.7258 147.221C86.7258 144.748 85.5078 143.511 83.0718 143.511H81.1258V150.945ZM92.6014 152.289C91.9107 152.289 91.3134 152.145 90.8094 151.855C90.3054 151.566 89.9134 151.16 89.6334 150.637C89.3627 150.105 89.2274 149.475 89.2274 148.747C89.2274 148.019 89.3627 147.394 89.6334 146.871C89.9134 146.339 90.3054 145.929 90.8094 145.639C91.3134 145.35 91.9107 145.205 92.6014 145.205C93.2734 145.205 93.8614 145.35 94.3654 145.639C94.8694 145.929 95.2614 146.339 95.5414 146.871C95.8214 147.394 95.9614 148.019 95.9614 148.747C95.9614 149.475 95.8214 150.105 95.5414 150.637C95.2614 151.16 94.8694 151.566 94.3654 151.855C93.8614 152.145 93.2734 152.289 92.6014 152.289ZM92.6014 151.197C93.1801 151.197 93.6467 150.987 94.0014 150.567C94.3561 150.147 94.5334 149.541 94.5334 148.747C94.5334 147.954 94.3561 147.352 94.0014 146.941C93.6467 146.521 93.1801 146.311 92.6014 146.311C92.0134 146.311 91.5421 146.521 91.1874 146.941C90.8327 147.352 90.6554 147.954 90.6554 148.747C90.6554 149.541 90.8327 150.147 91.1874 150.567C91.5421 150.987 92.0134 151.197 92.6014 151.197ZM100.359 152.289C99.2393 152.289 98.3573 151.977 97.7133 151.351C97.0693 150.717 96.7473 149.853 96.7473 148.761C96.7473 148.061 96.8873 147.445 97.1673 146.913C97.4567 146.372 97.8533 145.952 98.3573 145.653C98.8613 145.355 99.44 145.205 100.093 145.205C101.036 145.205 101.778 145.509 102.319 146.115C102.861 146.713 103.131 147.539 103.131 148.593V149.069H98.1193C98.222 150.488 98.9733 151.197 100.373 151.197C100.765 151.197 101.148 151.137 101.521 151.015C101.904 150.894 102.263 150.693 102.599 150.413L103.019 151.393C102.711 151.673 102.315 151.893 101.829 152.051C101.344 152.21 100.854 152.289 100.359 152.289ZM100.149 146.199C99.5613 146.199 99.0947 146.381 98.7493 146.745C98.404 147.109 98.194 147.595 98.1193 148.201H101.941C101.913 147.567 101.745 147.077 101.437 146.731C101.129 146.377 100.7 146.199 100.149 146.199Z" fill="white"/>
<path d="M233.625 152.289C232.477 152.289 231.6 151.855 230.993 150.987C230.396 150.11 230.097 148.855 230.097 147.221C230.097 145.56 230.396 144.305 230.993 143.455C231.6 142.597 232.477 142.167 233.625 142.167C234.782 142.167 235.66 142.597 236.257 143.455C236.854 144.305 237.153 145.555 237.153 147.207C237.153 148.85 236.85 150.11 236.243 150.987C235.646 151.855 234.773 152.289 233.625 152.289ZM233.625 151.085C234.334 151.085 234.862 150.773 235.207 150.147C235.552 149.522 235.725 148.542 235.725 147.207C235.725 145.873 235.552 144.902 235.207 144.295C234.871 143.679 234.344 143.371 233.625 143.371C232.916 143.371 232.388 143.679 232.043 144.295C231.698 144.911 231.525 145.882 231.525 147.207C231.525 148.542 231.698 149.522 232.043 150.147C232.388 150.773 232.916 151.085 233.625 151.085ZM241.777 152.289C241.143 152.289 240.527 152.191 239.929 151.995C239.341 151.79 238.851 151.505 238.459 151.141L238.949 150.021C239.808 150.712 240.741 151.057 241.749 151.057C242.393 151.057 242.897 150.885 243.261 150.539C243.625 150.185 243.807 149.723 243.807 149.153C243.807 148.565 243.635 148.085 243.289 147.711C242.944 147.338 242.463 147.151 241.847 147.151C240.979 147.151 240.284 147.511 239.761 148.229H238.753V142.293H244.633V143.511H240.167V146.633C240.69 146.176 241.353 145.947 242.155 145.947C242.781 145.947 243.322 146.078 243.779 146.339C244.237 146.601 244.591 146.969 244.843 147.445C245.095 147.912 245.221 148.458 245.221 149.083C245.221 149.718 245.081 150.278 244.801 150.763C244.521 151.239 244.125 151.613 243.611 151.883C243.098 152.154 242.487 152.289 241.777 152.289ZM246.234 153.087L245.156 152.765L248.754 141.593L249.846 141.915L246.234 153.087ZM250.372 152.163V151.085L253.662 147.557C254.119 147.063 254.446 146.615 254.642 146.213C254.847 145.812 254.95 145.406 254.95 144.995C254.95 143.931 254.325 143.399 253.074 143.399C252.122 143.399 251.268 143.759 250.512 144.477L249.994 143.371C250.367 143.007 250.843 142.718 251.422 142.503C252.001 142.279 252.603 142.167 253.228 142.167C254.245 142.167 255.025 142.401 255.566 142.867C256.117 143.334 256.392 144.001 256.392 144.869C256.392 145.457 256.247 146.031 255.958 146.591C255.678 147.151 255.235 147.749 254.628 148.383L252.192 150.945H256.784V152.163H250.372ZM261.226 152.289C260.564 152.289 259.934 152.191 259.336 151.995C258.739 151.79 258.24 151.505 257.838 151.141L258.342 150.021C258.781 150.376 259.234 150.637 259.7 150.805C260.167 150.973 260.662 151.057 261.184 151.057C261.856 151.057 262.365 150.913 262.71 150.623C263.065 150.334 263.242 149.919 263.242 149.377C263.242 148.836 263.065 148.435 262.71 148.173C262.365 147.912 261.861 147.781 261.198 147.781H259.672V146.563H261.058C261.646 146.563 262.108 146.414 262.444 146.115C262.79 145.817 262.962 145.406 262.962 144.883C262.962 144.407 262.804 144.043 262.486 143.791C262.169 143.53 261.716 143.399 261.128 143.399C260.13 143.399 259.257 143.759 258.51 144.477L258.006 143.371C258.389 142.989 258.865 142.695 259.434 142.489C260.013 142.275 260.615 142.167 261.24 142.167C262.23 142.167 263 142.396 263.55 142.853C264.101 143.301 264.376 143.927 264.376 144.729C264.376 145.271 264.236 145.747 263.956 146.157C263.686 146.568 263.308 146.867 262.822 147.053C263.41 147.203 263.863 147.492 264.18 147.921C264.498 148.341 264.656 148.859 264.656 149.475C264.656 150.343 264.348 151.029 263.732 151.533C263.126 152.037 262.29 152.289 261.226 152.289Z" fill="white"/>
<defs>
<linearGradient id="paint0_linear_11_1446" x1="234.354" y1="177.424" x2="48.4373" y2="59.9519" gradientUnits="userSpaceOnUse">
<stop stop-color="white"/>
<stop offset="1" stop-color="white" stop-opacity="0"/>
</linearGradient>
<clipPath id="clip0_11_1446">
<rect width="50" height="16" fill="white" transform="translate(25 20)"/>
</clipPath>
</defs>
</svg>
